<svg data-v-423bf9ae="" xmlns="http://www.w3.org/2000/svg" viewBox="0 0 325 91" class="iconLeft"><!----><!----><!----><g data-v-423bf9ae="" id="95149120-67d9-4183-a540-d74e4efe3b3e" fill="black" transform="matrix(5.357142948374458,0,0,5.357142948374458,106.05000879265809,9.375006120119778)"><path d="M0.42 2.67L0.42 2.67L0.42 1.27L0.42 1.27Q0.42 1.05 0.64 1.05L0.64 1.05L5.80 1.05L5.80 1.05Q6.02 1.05 6.02 1.27L6.02 1.27L6.02 2.67L6.02 2.67Q6.02 2.90 5.80 2.90L5.80 2.90L4.17 2.90L4.17 12.02L4.17 12.02Q4.17 12.25 3.95 12.25L3.95 12.25L2.50 12.25L2.50 12.25Q2.27 12.25 2.27 12.02L2.27 12.02L2.27 2.90L0.64 2.90L0.64 2.90Q0.54 2.90 0.48 2.84L0.48 2.84L0.48 2.84Q0.42 2.78 0.42 2.67ZM7.14 12.02L7.14 12.02L7.14 2.67L7.14 2.67Q7.14 2.45 7.38 2.45L7.38 2.45L8.82 2.45L8.82 2.45Q8.92 2.45 8.98 2.51L8.98 2.51L8.98 2.51Q9.04 2.57 9.04 2.67L9.04 2.67L9.04 6.45L10.83 6.45L10.83 2.67L10.83 2.67Q10.83 2.57 10.90 2.51L10.90 2.51L10.90 2.51Q10.96 2.45 11.06 2.45L11.06 2.45L12.50 2.45L12.50 2.45Q12.74 2.45 12.74 2.67L12.74 2.67L12.74 12.02L12.74 12.02Q12.74 12.25 12.50 12.25L12.50 12.25L11.06 12.25L11.06 12.25Q10.96 12.25 10.90 12.19L10.90 12.19L10.90 12.19Q10.83 12.13 10.83 12.02L10.83 12.02L10.83 8.30L9.04 8.30L9.04 12.02L9.04 12.02Q9.04 12.13 8.98 12.19L8.98 12.19L8.98 12.19Q8.92 12.25 8.82 12.25L8.82 12.25L7.38 12.25L7.38 12.25Q7.14 12.25 7.14 12.02ZM14.14 12.02L14.14 12.02L14.14 2.67L14.14 2.67Q14.14 2.57 14.20 2.51L14.20 2.51L14.20 2.51Q14.26 2.45 14.36 2.45L14.36 2.45L17.73 2.45L17.73 2.45Q18.72 2.45 19.23 2.96L19.23 2.96L19.23 2.96Q19.74 3.47 19.74 4.46L19.74 4.46L19.74 7.28L19.74 7.28Q19.74 8.50 18.96 8.99L18.96 8.99L19.68 12.00L19.68 12.00Q19.74 12.25 19.49 12.25L19.49 12.25L18.12 12.25L18.12 12.25Q17.92 12.25 17.88 12.05L17.88 12.05L17.21 9.30L15.96 9.30L15.96 12.02L15.96 12.02Q15.96 12.13 15.90 12.19L15.90 12.19L15.90 12.19Q15.84 12.25 15.74 12.25L15.74 12.25L14.36 12.25L14.36 12.25Q14.26 12.25 14.20 12.19L14.20 12.19L14.20 12.19Q14.14 12.13 14.14 12.02ZM15.96 4.26L15.96 7.49L17.36 7.49L17.36 7.49Q17.92 7.49 17.92 6.93L17.92 6.93L17.92 4.82L17.92 4.82Q17.92 4.26 17.36 4.26L17.36 4.26L15.96 4.26ZM21.14 12.02L21.14 12.02L21.14 2.67L21.14 2.67Q21.14 2.57 21.19 2.51L21.19 2.51L21.19 2.51Q21.25 2.45 21.35 2.45L21.35 2.45L26.50 2.45L26.50 2.45Q26.73 2.45 26.73 2.67L26.73 2.67L26.73 4.07L26.73 4.07Q26.73 4.31 26.50 4.31L26.50 4.31L23.04 4.31L23.04 6.47L25.68 6.47L25.68 6.47Q25.90 6.47 25.90 6.71L25.90 6.71L25.90 8.09L25.90 8.09Q25.90 8.33 25.68 8.33L25.68 8.33L23.04 8.33L23.04 10.40L26.50 10.40L26.50 10.40Q26.63 10.40 26.68 10.45L26.68 10.45L26.68 10.45Q26.73 10.50 26.73 10.62L26.73 10.62L26.73 12.02L26.73 12.02Q26.73 12.25 26.50 12.25L26.50 12.25L21.35 12.25L21.35 12.25Q21.25 12.25 21.19 12.19L21.19 12.19L21.19 12.19Q21.14 12.13 21.14 12.02ZM28.12 12.02L28.12 12.02L28.12 2.67L28.12 2.67Q28.12 2.57 28.17 2.51L28.17 2.51L28.17 2.51Q28.23 2.45 28.33 2.45L28.33 2.45L33.48 2.45L33.48 2.45Q33.71 2.45 33.71 2.67L33.71 2.67L33.71 4.07L33.71 4.07Q33.71 4.31 33.48 4.31L33.48 4.31L30.02 4.31L30.02 6.47L32.66 6.47L32.66 6.47Q32.88 6.47 32.88 6.71L32.88 6.71L32.88 8.09L32.88 8.09Q32.88 8.33 32.66 8.33L32.66 8.33L30.02 8.33L30.02 10.40L33.48 10.40L33.48 10.40Q33.61 10.40 33.66 10.45L33.66 10.45L33.66 10.45Q33.71 10.50 33.71 10.62L33.71 10.62L33.71 12.02L33.71 12.02Q33.71 12.25 33.48 12.25L33.48 12.25L28.33 12.25L28.33 12.25Q28.23 12.25 28.17 12.19L28.17 12.19L28.17 12.19Q28.12 12.13 28.12 12.02ZM35.10 12.02L35.10 12.02L35.10 1.27L35.10 1.27Q35.10 1.05 35.32 1.05L35.32 1.05L38.68 1.05L38.68 1.05Q39.68 1.05 40.19 1.57L40.19 1.57L40.19 1.57Q40.70 2.09 40.70 3.08L40.70 3.08L40.70 10.23L40.70 10.23Q40.70 11.22 40.19 11.74L40.19 11.74L40.19 11.74Q39.68 12.25 38.68 12.25L38.68 12.25L35.32 12.25L35.32 12.25Q35.10 12.25 35.10 12.02ZM37.00 2.90L37.00 10.40L38.29 10.40L38.29 10.40Q38.85 10.40 38.85 9.84L38.85 9.84L38.85 3.47L38.85 3.47Q38.85 2.90 38.29 2.90L38.29 2.90L37.00 2.90Z"></path></g><!----><g data-v-423bf9ae="" id="b699bbb5-14c9-417f-863c-12363db5d778" transform="matrix(1.0000000847710504,0,0,1.0000000847710504,-5.150005760192855,-4.000008053250106)" stroke="none" fill="black"><path d="M91.3 18.7L48.5 5.4 47.1 5l-1.3.5-37.2 15-2.5 1v2.7l-.3 53.2v3l2.8.9 42.9 13.3 1.4.4 1.3-.5 37.2-15 2.5-1v-2.7l.2-53.1v-3l-2.8-1zM53.4 37.9l2-.8-2 2v-1.2zm0 4.1l6.8-6.8 2-.8-8.7 8.7-.1-1.1zm0 4l13.5-13.5 2-.8-15.5 15.5V46zm0 4.1l20.3-20.3 2-.8-22.3 22.2v-1.1zm0 4l27-27.1 2-.8-29 29v-1.1zm-.1 4l33.8-33.8 2-.8-35.8 35.8v-1.2zm-.1 28.3l36.3-36.3v1.2L53.2 87.6v-1.2zm.1-2.9v-1.2L89.6 46v1.2L53.3 83.5zm0-4v-1.2L89.6 42v1.2L53.3 79.5zm0-4v-1.2L89.6 38v1.2L53.3 75.5zm0-4.1v-1.2l36.3-36.3v1.2L53.3 71.4zm0-4v-1.2l36.3-36.3v1.2L53.3 67.4zm0-4v-1.2l36.3-36.3v1.2L53.3 63.4zM13 24.2l34.3-13.9 39.8 12.4-34.2 13.8L13 24.2zm41 65.5l35.6-35.6v1.2L56 88.9l-2 .8zM83 78l-2 .8 8.5-8.5v1.2L83 78zm6.5-3.7v1l-1.8.7 1.8-1.7zm-13.3 6.4l-2 .8 15.3-15.3v1.2L76.2 80.7zm-6.7 2.7l-2 .8 22-22v1.2l-20 20zm-6.8 2.8l-2 .8 28.8-28.8v1.2L62.7 86.2z"></path></g><!----></svg>